# xmcd
#
# Track frame offsets: 
#        150
#        11607
#        24717
#        36205
#        50115
#        61625
#        76827
#        86595
#        98525
#        112645
#        127575
#        138652
#        157595
#        168934
#
# Disc length: 2435 seconds
#
# Revision: 1
# Processed by: cddbd v1.5.2PL0 Copyright (c) Steve Scherf et al.
# Submitted via: ExactAudioCopyFreeDBPlugin 1.0
#
DISCID=9509810e
DTITLE=Red Rivers - Wishbone
DYEAR=2001
DGENRE=Country
TTITLE0=How Long Am I Supposed To Wait For You
TTITLE1=You've Got No Heart
TTITLE2=I Still Dream Of You
TTITLE3=Big Wheels 
TTITLE4=Crazy Cat Mama
TTITLE5=New Fool
TTITLE6=Diggin' My Own Grave
TTITLE7=Baby Blue Buick
TTITLE8=The Girl Likes To Rock It
TTITLE9=Western Girl
TTITLE10=Freight Line Blues
TTITLE11=Wishbone
TTITLE12=Cowboy Boots
TTITLE13=Diesel Smoke
EXTD=
EXTT0=
EXTT1=
EXTT2=
EXTT3=
EXTT4=
EXTT5=
EXTT6=
EXTT7=
EXTT8=
EXTT9=
EXTT10=
EXTT11=
EXTT12=
EXTT13=
PLAYORDER=
